PathFileType	4	(X/Y/Z)	1_1_41_p0_0-251.trc
DataRate	CameraRate	NumFrames	NumMarkers	Units	OrigDataRate	OrigDataStartFrame	OrigNumFrames
59.0	59.0	6	27	m	59.0	189	252
Frame#	Time	RHip			RKnee			RAnkle			RBigToe			RSmallToe			RHeel			LHip			LKnee			LAnkle			LBigToe			LSmallToe			LHeel			Neck			Head			Nose			RShoulder			RElbow			RWrist			RThumb			RIndex			RPinky			LShoulder			LElbow			LWrist			LThumb			LIndex			LPinky			
		X1	Y1	Z1	X2	Y2	Z2	X3	Y3	Z3	X4	Y4	Z4	X5	Y5	Z5	X6	Y6	Z6	X7	Y7	Z7	X8	Y8	Z8	X9	Y9	Z9	X10	Y10	Z10	X11	Y11	Z11	X12	Y12	Z12	X13	Y13	Z13	X14	Y14	Z14	X15	Y15	Z15	X16	Y16	Z16	X17	Y17	Z17	X18	Y18	Z18	X19	Y19	Z19	X20	Y20	Z20	X21	Y21	Z21	X22	Y22	Z22	X23	Y23	Z23	X24	Y24	Z24	X25	Y25	Z25	X26	Y26	Z26	X27	Y27	Z27	
189	3.2033898305084745	0.3613237345241037	0.11459743456798181	1.1056248790596634	0.3607598486726407	0.2263448825502097	1.5474224038880444	0.3643920095328657	0.3637954703693842	1.963590146394048	0.3329027184898258	0.1813447268036413	2.012356317246265	0.39129529852204264	0.20630223004872725	2.001994434519454	0.3436452451315542	0.457046063243077	2.033879345645564	0.1315242898277429	0.1092409010879185	1.0988825121683465	0.15121005896653628	0.22418722943305106	1.542065523220535	0.1645948581224995	0.3332554512708753	1.9457891443764188	0.1761090062362229	0.1664068413920087	2.0127252656288457	0.12394166102593498	0.2060246704481268	1.9870668378556195	0.20305995001244864	0.40444626136128886	2.0213722619774033	0.28095519665641294	0.07126060181912698	0.44223880799694676	0.30276917610561865	0.008775401822461013	0.17668633705516903	0.3009949090097686	-0.045073797425745556	0.3211019565430576	0.4489360145109046	0.09221441307575133	0.571479972615034	0.5002476009143009	0.10871308034321622	0.8643310166027897	0.4806912951846254	0.03359677743762238	1.1379872622209681	0.4167106744550825	0.0012173131644356192	1.247488276767411	0.4193566277205656	-0.0017088032916767952	1.2618003751091875	0.46759656020868257	0.0696374502294699	1.2791007199267745	0.06809947408553063	0.07748627958456984	0.5410626245315018	-0.010001399341234183	0.12329329228768868	0.8145646581192906	0.012676052444632506	0.08623137099076528	1.0847983049893275	0.06427840814542952	0.11333439642029283	1.207615237852628	0.03642553446343181	0.08050832123451264	1.225758901028563	-0.014315028733684896	0.11986798577868894	1.2368884901904913
190	3.2203389830508473	0.36636443621508097	0.11764991064537783	1.1098912526662323	0.36168587331287155	0.22845083494429325	1.5516680398445715	0.3642268970744531	0.3638831619406832	1.9638945050420817	0.32904322052006296	0.18074152049076125	2.006876617839104	0.3905388641217976	0.2154463403016077	2.0057117777433264	0.3439716644941564	0.4588840894227616	2.029725658409784	0.13160935495101211	0.1091378090072966	1.0989560206891429	0.15261712817819129	0.2285546704838308	1.5517395478147995	0.16116759544990406	0.3496707190827097	1.9588930752130176	0.17133204425158075	0.17987801526222297	2.021108519146043	0.12367664824738582	0.20584482932129822	1.9865922414153772	0.18972249718054357	0.4044739123502151	2.0226134364617554	0.2809458663032225	0.07135701703098345	0.44221266118587266	0.3027284120002363	0.008771905115129172	0.17641158508613233	0.3009344080294577	-0.04507105454280275	0.32107239798551646	0.44910681238464917	0.09226780895761642	0.5716430936539878	0.5003393179225524	0.10878747821088113	0.8645061783478817	0.48422638668827656	0.019389620990683597	1.1373906507267217	0.4167908873872102	0.001253645151770109	1.2474930689125079	0.4232823813099875	8.427971132944662e-05	1.2620658552346276	0.46797615342642407	0.06915778733125122	1.2789720602289394	0.0680302804217648	0.07772933016077946	0.5411373689983358	-0.0052759267793476405	0.12475137784613212	0.8180633432656879	0.01771714259977122	0.07530413661071804	1.0818765009669602	0.06538101949479933	0.11644362129730955	1.214424960820072	0.04116671582404672	0.07073537405322464	1.22642691250791	-0.01407308158387887	0.12007519934504847	1.237464808333284
191	3.23728813559322	0.3662962000069467	0.11817789729802114	1.1100612851172051	0.3616745343302978	0.2288077929888289	1.5514579211828883	0.3644272629228932	0.36085861165861527	1.9673183271238148	0.33321867017047063	0.18300401131785843	2.0084599908064544	0.3865634270955616	0.20427614349023362	2.000353841039593	0.33869203106148604	0.4414819946378731	2.0286523354317327	0.1316040061621924	0.109236901790817	1.099055271992921	0.15185579296254934	0.2265146748144435	1.5470499127336794	0.1595719749660076	0.3495393068409801	1.94999441294327	0.16674282648318733	0.17823446315182462	2.0204797145543028	0.12376465199511145	0.2062025990640045	1.9871333683903831	0.18977657315175836	0.40456747864864373	2.0225686230239277	0.2809277811322579	0.07143977710238127	0.44220719544888015	0.30271354356107655	0.008782036798634901	0.17648394081927923	0.300877850343007	-0.045211706542261296	0.32106846529959926	0.44854218096421133	0.09413066057255018	0.5682014217981631	0.5003202253602764	0.10877257309576971	0.864498954396421	0.4839475218979745	0.020897241797479052	1.1339428825870623	0.4168326015852106	0.0013334738052099657	1.2473147004877458	0.41942491680863997	-0.001722461742535799	1.2615984471065365	0.46785796866865287	0.06936113308032153	1.278955239501702	0.06800632563016132	0.0776751781506472	0.5411718690016888	-0.005721020925391245	0.12629764441467273	0.8148377719377846	0.01638466140771513	0.08872444456702694	1.0855160327145112	0.06491284049819393	0.11518751272073306	1.211066912152229	0.03676002328634311	0.07964444602025868	1.2286634947964634	-0.011566195683613492	0.13088483281962202	1.2401704374828277
192	3.2542372881355934	0.3666156525644438	0.11786679578662333	1.1100124184513482	0.36177674381180175	0.2301534817265437	1.5474487392351446	0.36430053549140834	0.36442880831662355	1.9634924403481349	0.3333697070144195	0.18268406377005753	2.008738833121169	0.3866117155892796	0.2045284040754044	2.0005676747148065	0.3388471913686604	0.44645979025456595	2.0205395211758668	0.13618836721695482	0.11041850673896993	1.1030693676599037	0.15284702436776312	0.22889983677140716	1.5513795161344048	0.1607258376642033	0.3521034563468276	1.9555803280169421	0.16668966479209504	0.17854204848208743	2.0206132461028554	0.1201794360527117	0.2085563805715295	1.988747309495855	0.19444262542513993	0.4081641919686804	2.02563334493466	0.28092024760475504	0.07143848349765486	0.44212807208778443	0.30256518424979334	0.008865142287815124	0.17662726496509704	0.2977686056183768	-0.0546505924403023	0.31876912606547103	0.4482455664220718	0.09496967863308123	0.5646217466664727	0.5004105332407637	0.1087071416065557	0.8644114278042262	0.4838467829961801	0.02205813902315195	1.1308131189963224	0.4168821458242619	0.0014836055378808965	1.2473665539735113	0.42688979596271504	0.009543128884186056	1.264568886751195	0.4711477178899359	0.07754786089871485	1.2774120088121044	0.07256098276955246	0.06652734558935922	0.5400317275806829	-0.0012870061765181426	0.12918698228717737	0.8153066075673341	0.02148907659265546	0.07769137438743963	1.0823654888166812	0.06489985443054201	0.11434975244021309	1.211479776851153	0.04153087809668552	0.0665020796669204	1.228365540573412	-0.00749784613387591	0.1333049032627903	1.2409145258378205
193	3.2711864406779663	0.3662803836747376	0.11940073527922514	1.1067075036856724	0.3657772742466544	0.24045320742340615	1.5551104402961782	0.36426367733412646	0.3640866260884195	1.9635430254473072	0.333466110318309	0.18305109912842885	2.0094004457105763	0.3867270532318356	0.20483938873236296	2.000932686536235	0.3391000031419831	0.442976104215291	2.0242057133246667	0.13614260646771842	0.11081535394153531	1.1031487798799011	0.1527781283843064	0.22887634599083145	1.5514977429012826	0.1645694790897191	0.33533708396720574	1.9419740520225788	0.16658239555768994	0.17851971302659822	2.020850041879136	0.11512181475367643	0.2220348661870885	1.9965439818707864	0.189515331712705	0.4022703467654166	2.0234459531774265	0.28088955657392456	0.07146454856750865	0.4421023841426427	0.29577825201539093	-0.0015327210009101755	0.177792272081181	0.29771070033622554	-0.0546044364393951	0.31877156712856924	0.4482592612899366	0.094939466955974	0.5646040579404698	0.5003209450178193	0.10882639907156728	0.8643973967550631	0.487862533565216	0.02306650832404969	1.130930200593294	0.4172516557781608	0.00019464951921953637	1.2505019440942666	0.42690099990124175	0.009804463697085724	1.2644287957456721	0.471175074215274	0.07889905926786776	1.2741651522989201	0.06816201896754757	0.07762591622855916	0.5411337663541592	-0.0010839828479209707	0.130626455333076	0.8191643224358676	0.025093740501177957	0.08030019427596229	1.082937437148142	0.06549177154327146	0.11630632052288124	1.2148056151192586	0.042032944579641345	0.06830225718088151	1.2326329864464933	-0.007420208892711676	0.13375574053784717	1.240926817963801
194	3.288135593220339	0.3664744740790401	0.11746462588839089	1.109781127351998	0.3617661695672509	0.2286350825287956	1.5511904101107787	0.36457897183185933	0.36469068208994937	1.963361233217686	0.33333600863978563	0.18266595878038921	2.008402142124183	0.39098058180435946	0.20734752679243934	2.001733213586194	0.34417112856344867	0.4591078892676427	2.0290692156177546	0.13606692247525204	0.11044837007649289	1.1030349437023064	0.15290510245904865	0.22909000284565667	1.5513987006456365	0.1573803613311886	0.34692750849556625	1.9575912587490902	0.16954180716443756	0.19083499480549632	2.0272850812787935	0.12066139107801059	0.20662367913622545	1.9918595469467821	0.18970401427924213	0.40379804030902144	2.0232119398119903	0.2808707456602484	0.07150897706907801	0.4420866451618413	0.29574706926439437	-0.0013899321425033912	0.1776103631464208	0.2976432186372698	-0.05472424433353477	0.31866451832880915	0.44822680051998476	0.09490409907363871	0.5645302082268192	0.5003408019568613	0.10893006958850414	0.8643511277376319	0.4847958168319642	0.03571022287166064	1.1349341606149472	0.41693600066141984	0.0014280472602365953	1.2473281462422579	0.4232051073144601	0.00033036884110049887	1.2618356622308278	0.46710048423517514	0.06820690804374374	1.2749339193041387	0.06812746897058154	0.07773828766272013	0.5411457248299306	0.0031247789164981134	0.13370859304744895	0.8192191623080186	0.0251441744385485	0.08027210873130583	1.0828452231048336	0.06549188737264805	0.11662486976936615	1.214945849584785	0.04211785398265911	0.06879792704183761	1.2327499881903108	-0.003397002135979727	0.13596960269138705	1.241333621045548
